<svg xmlns="http://www.w3.org/2000/svg" xmlns:xlink="http://www.w3.org/1999/xlink" width="340.157" height="340.157">
  <defs>
    <path id="a" d="m.364.21.04-.112A.057.057 0 0 0 .407.084C.407.06.398.056.356.035.347.03.346.026.346.017.346.005.359 0 .371 0h.202C.59 0 .599.008.599.015.599.019.598.027.592.03.533.061.534.064.515.117L.32.648C.306.687.302.71.285.707.271.704.268.686.257.649L.098.139C.077.071.076.063.015.035.009.032.003.025.003.019.003.006.012 0 .024 0h.159c.013 0 .024.004.024.016 0 .023-.056.018-.056.058 0 .006.006.025.011.041L.191.21h.173M.278.683V.611L.108.057C.15.027.187.029.187.016L.185.013a.288.288 0 0 0-.087.036A.974.974 0 0 0 .027.02C.024.019.015.015.015.021c0 .005.009.008.014.01C.084.05.09.079.107.134l.171.549M.406.252.352.278.276.489l.011.096.119-.333M.27.473.34.279H.212L.27.473M.209.269h.136l.038-.02H.176l.033.02M.19.228.191.225C.191.22.184.217.181.222L.175.236.174.24c0 .004.007.005.009.001L.19.228M.473.064C.536.022.584.034.584.017.584.013.574.014.57.015a.337.337 0 0 0-.103.039.345.345 0 0 0-.102-.038c-.002 0-.009 0-.009.004 0 .007.009.008.026.016.022.01.037.024.037.043 0 .01-.006.026-.01.037L.373.215l.038.022.062-.173Z"/>
    <path id="b" d="M.076.667C.064.667.057.659.057.652.057.639.063.634.083.62.112.6.115.577.115.541V.107C.115.054.101.052.073.039.059.032.047.03.047.018.047.002.066 0 .084 0H.22c.012 0 .029 0 .029.014 0 .012.001.017-.036.034C.182.062.182.094.182.123v.335L.498.009c.009-.013.015-.025.028-.025.017 0 .019.018.019.031v.553c0 .043.016.047.047.064C.599.636.6.644.6.65.6.658.589.667.575.667H.444C.43.667.419.659.419.649c0-.036.059-.016.059-.081V.23L.174.667H.076M.145.053C.197.028.238.028.238.019.238.015.23.016.226.016a.528.528 0 0 0-.087.028.26.26 0 0 0-.074-.028L.062.018c0 .004 0 .006.004.007.049.02.059.027.059.095v.427c0 .085-.059.079-.059.101 0 .007.008.009.014.009h.086L.145.622a.553.553 0 0 1-.064.027C.077.649.076.647.076.644c0-.006.026-.012.069-.033V.053m.343.146v.369c0 .045-.019.049-.054.07C.432.639.429.643.429.646c0 .01.01.011.019.011h.126c.003 0 .01-.002.01-.006C.584.64.567.642.51.622A.191.191 0 0 1 .444.65C.443.65.438.649.438.647c0-.013.041-.011.067-.036V.126L.488.199M.503.095l.019-.101C.516-.004.514 0 .512.003l-.33.476-.024.098.345-.482Z"/>
    <path id="c" d="M.524.206c0 .085.012.086.062.119.006.004.006.014.006.019 0 .011-.013.017-.03.017H.369C.353.361.344.354.344.345.344.342.342.336.346.33.355.316.412.305.412.245V.164C.412.086.36.045.31.045.212.045.14.157.14.327c0 .163.076.291.175.291C.403.618.43.572.466.49.468.484.476.482.481.482c.017 0 .021.018.021.04v.156c0 .017-.01.024-.017.024C.455.702.467.656.426.656.409.656.363.672.313.672.146.672.031.53.031.327c0-.193.116-.333.281-.333.052 0 .147.024.212.081v.131m-.06.401L.482.522.487.503C.487.501.486.495.483.495.476.495.475.505.471.52L.448.607a.328.328 0 0 1-.134.037C.178.644.082.504.082.328c0-.113.039-.209.1-.261C.201.05.225.037.245.026H.224L.23.016C.129.044.041.167.041.327c0 .199.114.335.272.335.049 0 .1-.016.113-.016.019 0 .03-.003.049.037.004.009.011.007.011.003C.486.68.482.67.481.667L.464.607M.422.245c0 .074-.069.076-.069.098 0 .007.01.008.015.008h.194C.57.351.582.35.582.343.582.328.531.331.464.294A.269.269 0 0 1 .37.343.002.002 0 0 1 .368.341C.368.33.373.34.464.284.467.232.466.194.466.169c0-.019 0-.043-.002-.064A.189.189 0 0 0 .311.02.173.173 0 0 0 .23.042h.017l-.01.014A.168.168 0 0 1 .309.035c.061 0 .113.048.113.128v.082Z"/>
    <path id="d" d="M.491.114a.175.175 0 0 1 .004.032c0 .009-.007.015-.019.015C.45.161.441.053.323.053.246.053.235.079.235.138v.191h.062c.035 0 .054-.01.066-.043C.372.262.374.251.387.251c.011 0 .017.011.017.027v.165c0 .011-.006.021-.016.021C.372.464.368.446.362.43.35.397.332.393.305.393h-.07v.152c0 .019-.005.072.086.072S.436.558.458.518C.459.516.465.509.468.509c.022 0 .023.007.023.027a.266.266 0 0 1-.009.037l-.03.094H.086C.065.667.048.663.048.646c0-.008.005-.015.011-.019C.099.603.121.59.121.534V.121C.121.06.099.049.06.031.055.029.047.025.047.016.047.004.058 0 .071 0h.397l.023.114m-.36.432C.131.623.06.624.06.645c0 .009.014.012.028.012h.354L.434.638C.455.58.48.539.48.526.48.524.479.523.477.523.463.523.46.565.426.626A.384.384 0 0 1 .321.64.29.29 0 0 1 .173.599a.267.267 0 0 1-.095.047C.077.646.069.647.069.644c0-.012.033-.007.102-.056A.423.423 0 0 0 .175.536V.135L.173.069a.469.469 0 0 1 .15-.026c.127 0 .132.105.155.105C.48.148.481.146.481.144.481.133.457.098.432.053.439.04.457.023.457.018c0-.002 0-.004-.002-.004-.012 0-.008.008-.032.031A.292.292 0 0 0 .324.026a.48.48 0 0 0-.155.026.292.292 0 0 0-.104-.04C.063.012.059.014.059.016c0 .006.011.009.02.013.041.017.052.042.052.089v.428M.23.383h.074c.033 0 .053.003.07.045l.008.021c.001.003.003.005.005.005S.391.452.391.447C.391.438.376.4.367.37l.024-.1C.391.268.392.26.388.26.375.26.381.297.354.362L.325.363H.192l.038.02M.223.342.227.338c0-.002 0-.007-.004-.007a.014.014 0 0 0-.006.002L.196.347.193.351c0 .003.002.006.006.006L.203.356l.02-.014Z"/>
    <path id="e" d="M.522.114a.165.165 0 0 1 .004.032c0 .009-.007.015-.019.015-.01 0-.02-.019-.033-.04C.44.065.399.052.333.052.25.052.235.076.235.136v.419c0 .043.018.052.057.075C.3.635.301.643.301.649c0 .016-.022.018-.043.018H.086C.064.667.048.663.048.647c0-.008.004-.016.011-.02C.099.603.121.59.121.534V.121C.121.06.099.049.06.031.055.029.047.025.047.016.047.004.058 0 .071 0h.428l.023.114M.131.546C.131.622.06.624.06.645c0 .009.015.012.028.012H.27C.279.657.291.655.291.648.291.631.231.635.173.599a.25.25 0 0 1-.082.044C.084.645.07.649.07.644.07.631.102.637.171.588.172.574.175.554.175.536V.1L.173.067C.211.057.257.042.331.042c.075 0 .115.012.152.072C.501.143.5.148.509.148.511.148.512.146.512.144.512.134.49.1.463.053.471.04.488.023.488.018c0-.002 0-.004-.002-.004-.012 0-.008.008-.032.031a.49.49 0 0 0-.285.007.292.292 0 0 0-.104-.04C.063.012.059.014.059.016c0 .006.011.009.02.013.039.017.052.041.052.089v.428Z"/>
    <path id="f" d="M.238.536C.238.597.245.6.295.63c.008.005.009.013.009.019 0 .016-.021.018-.043.018H.089C.068.667.051.663.051.646c0-.008.005-.015.011-.019C.102.603.124.59.124.534V.121C.124.06.102.049.063.031.058.029.05.025.05.016.05.004.061 0 .074 0h.212C.3 0 .311.003.311.015.311.023.308.03.3.033.256.049.238.064.238.134v.402M.178.1.176.065C.23.024.298.03.298.018.298.016.294.015.293.015a.327.327 0 0 0-.121.037.292.292 0 0 0-.104-.04C.066.012.062.014.062.016c0 .006.012.009.02.013.041.017.052.042.052.089v.428c0 .077-.072.078-.072.099 0 .009.014.012.028.012h.183c.008 0 .02-.002.02-.009C.293.631.234.635.176.599.135.632.081.646.081.646.08.646.072.647.072.644c0-.012.034-.007.102-.056A.456.456 0 0 0 .178.536V.1Z"/>
    <path id="g" d="M.477.659C.477.688.469.7.458.7.445.7.441.692.428.668.41.633.364.68.285.68.15.68.03.546.03.34.03.228.073.115.143.051c.049-.045.1-.059.173-.059.036 0 .09.02.126.054.045.043.069.11.069.124 0 .028-.015.036-.027.036C.46.206.451.187.434.146.413.097.368.053.314.053c-.093 0-.17.123-.17.286 0 .179.059.283.144.283.084 0 .115-.056.157-.125C.448.492.455.49.459.49c.019 0 .018.022.018.047v.122M.43.609.462.525c0-.001.006-.01.006-.018 0-.002 0-.004-.002-.004-.009 0-.009.008-.013.018L.418.609a.283.283 0 0 1-.135.044C.191.653.086.552.086.34c0-.154.058-.259.173-.318H.238L.259.007C.157.008.04.155.04.338.04.542.159.67.284.67.337.67.387.645.398.645c.05 0 .038.045.057.045C.46.69.462.686.463.683L.43.609M.259.047.245.063c.02-.01.04-.02.07-.02.059 0 .106.046.128.097.016.037.02.056.04.056.01 0 .02-.01.02-.024L.502.164C.5.168.495.179.49.179.479.179.475.163.453.119.427.066.366.025.316.025a.137.137 0 0 0-.083.022h.026Z"/>
    <path id="h" d="M0 0Z"/>
    <path id="i" d="M.027.195c0-.132.094-.198.183-.198a.23.23 0 0 1 .169.066A.168.168 0 0 1 .507 0c.042 0 .066.012.066.037 0 .039-.05.016-.093.077L.451.156l.038.1C.498.281.51.305.527.313.566.33.578.334.578.349c0 .009-.01.016-.024.016H.398C.381.365.373.355.373.348.373.333.371.33.415.308.426.302.424.293.424.287A.161.161 0 0 0 .4.229L.293.394C.362.447.402.491.402.56.402.614.343.681.26.681.153.681.1.592.1.546.1.497.107.468.158.391.084.336.027.281.027.195M.334.64.353.61a.13.13 0 0 1-.09.036C.203.646.154.61.154.544c0-.04.034-.091.073-.151H.168C.135.447.11.486.11.535c0 .064.056.136.149.136A.147.147 0 0 0 .362.628L.334.64M.261.444c.074.048.08.086.08.115 0 .017-.014.037-.037.05l.029-.01-.01.019C.354.601.367.572.367.561.367.49.316.459.241.399l.02.045M.212.563c0 .021.021.046.054.046.037 0 .065-.032.065-.05 0-.028 0-.049-.07-.102C.234.502.212.532.212.563m.065-.17C.281.393.284.391.284.386.284.384.283.383.281.383h-.03C.249.383.244.384.244.387c0 .005.005.006.008.006h.025M.209.383C.11.328.082.27.082.196c0-.087.064-.12.112-.151L.145.05.182.014a.144.144 0 0 0-.105.059.17.17 0 0 0-.04.121c0 .065.046.134.129.189h.043m.023 0L.391.138.343.129l-.134.2.023.054M.406.216a.166.166 0 0 1 .028.068c0 .027.001.026-.045.051C.385.337.382.339.382.345c0 .008.011.01.021.01h.149C.555.355.563.354.563.349c0-.011-.03-.001-.09-.03C.45.332.402.348.402.348.401.348.395.349.395.346c0-.012.02-.006.078-.037A.8.8 0 0 0 .4.15l.006.066M.334.124a.12.12 0 0 0-.07-.026.123.123 0 0 0-.124.128c0 .03.021.065.061.097L.334.124m.104.028C.44.152.441.152.441.15.441.147.442.143.437.142L.412.135H.406C.404.135.403.136.403.138c0 .004.004.005.006.006l.029.008M.391.127C.356.097.313.055.244.055a.112.112 0 0 0-.067.023h.039L.195.102C.214.096.235.088.263.088c.027 0 .054.011.08.03l.048.009M.4.12.438.075C.485.02.561.047.561.031.561.017.533.01.506.01a.16.16 0 0 0-.118.059L.4.12Z"/>
    <path id="j" d="M.424.644c0 .01 0 .032-.016.032C.387.676.387.65.361.65.339.65.284.678.218.678A.187.187 0 0 1 .03.496c0-.087.051-.145.111-.17C.276.271.345.238.345.167A.114.114 0 0 0 .233.052C.138.052.099.107.068.193.066.199.058.206.048.206.035.206.029.191.03.168L.035.035C.036.014.037-.001.049-.001c.009 0 .019.01.028.019.004.003.006.006.011.006.019 0 .071-.031.161-.031.099 0 .205.086.205.195 0 .06-.026.113-.076.152C.263.43.125.417.125.526c0 .061.048.1.096.1.127 0 .145-.067.164-.115C.39.497.395.489.407.489c.017 0 .017.021.017.034v.121M.04.496c0 .097.085.172.178.172C.275.668.333.64.35.64.359.64.38.638.389.651c.003.005.009.016.014.013C.405.663.405.661.405.659L.39.614.415.512c0-.002 0-.009-.004-.009-.005 0-.007.009-.008.013L.381.601A.356.356 0 0 1 .22.649C.155.649.078.592.078.509c0-.056.036-.106.098-.134C.298.32.394.277.394.191A.169.169 0 0 0 .226.019a.224.224 0 0 0-.147.058L.06.156C.057.17.057.182.05.182.044.182.048.166.051.153L.069.077.058.031C.056.022.056.015.049.015.044.015.045.031.045.037L.04.178c0 .009.002.018.012.018S.065.18.068.168A.193.193 0 0 1 .137.07.148.148 0 0 1 .235.042c.045 0 .12.035.12.126 0 .081-.071.11-.211.168a.168.168 0 0 0-.104.16Z"/>
    <path id="k" d="M.315 0c.05 0 .101-.003.154.039.046.037.073.09.073.152a.18.18 0 0 1-.103.165.16.16 0 0 1 .081.147C.52.564.487.625.434.649a.3.3 0 0 1-.112.018H.086C.065.667.048.663.048.646c0-.008.005-.015.011-.019C.099.603.121.59.121.534V.121C.121.06.099.049.06.031.055.029.047.025.047.016.047.004.058 0 .071 0h.244m.094.636L.433.611A.198.198 0 0 1 .315.64.318.318 0 0 1 .173.599a.267.267 0 0 1-.095.047C.077.646.069.647.069.644c0-.012.033-.007.102-.056A.423.423 0 0 0 .175.536V.1L.173.059A.582.582 0 0 1 .3.039c.1 0 .148.058.148.153C.448.243.427.297.381.32l.032.002-.037.026C.441.335.484.269.484.191A.162.162 0 0 0 .313.026a.608.608 0 0 0-.144.021.508.508 0 0 0-.104-.035C.063.012.059.014.059.016c0 .006.011.009.02.013.041.017.052.042.052.089v.428C.131.623.06.624.06.645c0 .009.014.012.028.012h.237C.371.657.407.652.439.63l-.03.006M.188.355l.045.017h.061c.091 0 .135.047.135.129C.429.548.41.59.375.61L.402.605.387.624C.433.608.469.553.469.503.469.427.423.355.306.355H.188m.047.186.002.046a.11.11 0 0 0 .079.027C.387.614.419.559.419.502c0-.079-.042-.12-.127-.12H.235v.159M.222.331C.227.328.226.326.226.323.226.321.225.32.223.32L.218.321.193.336.19.339c0 .002 0 .007.004.007L.198.345.222.331m.085-.01c.042 0 .08-.004.107-.044A.17.17 0 0 0 .438.192C.438.094.377.051.326.051.258.051.235.082.235.138v.183h.072Z"/>
    <path id="l" d="M.536 0c.016 0 .036 0 .036.012C.572.029.566.03.539.045.495.07.485.12.457.218c-.014.049-.03.07-.07.093.07.018.122.084.122.178A.18.18 0 0 1 .42.642a.24.24 0 0 1-.121.025H.086C.065.667.048.663.048.646c0-.008.005-.015.011-.019C.099.603.121.59.121.534V.121C.121.06.099.049.06.031.055.029.047.025.047.016.047.004.058 0 .071 0h.212c.014 0 .025.003.025.015C.308.023.305.03.297.033.253.049.235.064.235.134v.157h.001C.304.303.329.264.357.181.372.135.384.101.384.083.384.067.381.05.371.045.352.036.334.024.334.016.334.003.337 0 .361 0h.175M.131.546c0 .077-.072.078-.072.099 0 .009.014.012.028.012h.211C.352.657.395.649.429.623L.405.628.418.615C.385.627.354.639.312.639a.238.238 0 0 1-.139-.04C.132.632.078.646.078.646.077.646.069.647.069.644c0-.012.034-.007.102-.056A.456.456 0 0 0 .175.536V.1L.173.065C.227.025.295.03.295.018.295.016.291.015.29.015a.327.327 0 0 0-.121.037.292.292 0 0 0-.104-.04C.063.012.059.014.059.016c0 .006.012.009.02.013.041.017.052.042.052.089v.428m.104.041a.07.07 0 0 0 .062.032C.365.619.401.574.401.487A.17.17 0 0 0 .367.389C.339.354.304.352.261.352L.235.353v.234M.217.342C.284.342.324.338.36.367a.165.165 0 0 1 .051.121c0 .06-.015.099-.052.125L.401.595.385.618C.435.594.458.544.458.489A.184.184 0 0 0 .371.341.229.229 0 0 0 .268.322H.186l.031.02m.008-.04L.229.298C.229.296.228.292.224.292L.218.294.2.305C.195.308.197.311.197.313l.004.002.004-.001.02-.012M.342.279.323.305C.398.272.412.162.441.06.534.018.56.027.56.016.56.01.544.014.534.016a.444.444 0 0 0-.093.032.368.368 0 0 0-.09-.034C.347.015.347.018.347.02c0 .011.047.001.047.065 0 .011-.031.164-.087.204l.035-.01Z"/>
    <path id="m" d="M.154.828.229.754l.074.074-.074.075L.154.828m.168 0L.397.754l.074.074-.074.075L.322.828M.288.832H.233v.042c0 .002-.002.005-.005.005C.226.879.226.875.226.874V.832h-.04c-.001 0-.008 0-.008-.003 0-.005.006-.005.008-.005h.04V.771L.168.828l.061.061.059-.057m.168 0H.401v.042c0 .002-.002.005-.005.005C.394.879.394.875.394.874V.832h-.04c-.001 0-.008 0-.008-.003 0-.005.005-.005.008-.005h.04V.771L.336.828l.061.061.059-.057M.324-.01c.155 0 .278.139.278.347 0 .177-.12.345-.29.345C.158.682.024.53.024.333c0-.181.126-.343.3-.343m.095.649L.438.622a.313.313 0 0 1-.126.032C.181.654.077.517.077.334a.42.42 0 0 1 .056-.2.321.321 0 0 1 .106-.105l-.02.003.022-.017C.111.058.034.196.034.332c0 .178.12.34.278.34a.23.23 0 0 0 .136-.04L.419.639M.311.626C.377.626.419.595.452.527A.488.488 0 0 0 .497.336C.497.147.424.045.322.045.207.045.135.17.135.333c0 .17.07.293.176.293M.246.044.228.065c.024-.014.05-.03.084-.03.121 0 .195.104.195.301a.376.376 0 0 1-.111.28L.418.608.407.625C.48.59.551.46.551.337.551.148.448.016.318.016a.167.167 0 0 0-.093.033L.246.044Z"/>
    <path id="n" d="M.324-.01c.155 0 .278.139.278.347 0 .177-.12.345-.29.345C.158.682.024.53.024.333c0-.181.126-.343.3-.343m.095.649L.438.622a.313.313 0 0 1-.126.032C.181.654.077.517.077.334a.42.42 0 0 1 .056-.2.321.321 0 0 1 .106-.105l-.02.003.022-.017C.111.058.034.196.034.332c0 .178.12.34.278.34a.23.23 0 0 0 .136-.04L.419.639M.311.626C.377.626.419.595.452.527A.488.488 0 0 0 .497.336C.497.147.424.045.322.045.207.045.135.17.135.333c0 .17.07.293.176.293M.246.044.228.065c.024-.014.05-.03.084-.03.121 0 .195.104.195.301a.376.376 0 0 1-.111.28L.418.608.407.625C.48.59.551.46.551.337.551.148.448.016.318.016a.167.167 0 0 0-.093.033L.246.044Z"/>
    <path id="o" d="M.295.279a.206.206 0 0 1 .154.347C.408.663.362.667.309.667H.086C.065.667.048.663.048.646c0-.008.005-.015.011-.019C.099.603.121.59.121.534V.121C.121.06.099.049.06.031.055.029.047.025.047.016.047.004.058 0 .071 0h.212c.014 0 .025.003.025.015C.308.023.305.03.297.033.255.048.235.063.235.134v.145h.06M.131.546c0 .077-.072.078-.072.099 0 .009.014.012.028.012h.22C.378.657.406.646.433.615L.412.624l.007-.02a.165.165 0 0 1-.113.035.28.28 0 0 1-.133-.04C.132.632.078.646.078.646.077.646.069.647.069.644c0-.012.034-.007.102-.056A.456.456 0 0 0 .175.536V.1L.173.065C.227.025.295.03.295.018.295.016.291.015.29.015a.327.327 0 0 0-.121.037.292.292 0 0 0-.104-.04C.063.012.059.014.059.016c0 .006.012.009.02.013.041.017.052.042.052.089v.428m.104.045a.084.084 0 0 0 .06.027C.359.618.398.567.398.486c0-.077-.036-.129-.1-.143C.279.339.267.34.248.34L.235.341v.25m0-.261h.029c.087 0 .144.055.144.158A.16.16 0 0 1 .369.6L.401.585l-.02.031C.43.592.45.538.45.491A.219.219 0 0 0 .407.363C.374.322.337.31.283.31H.186l.049.02M.196.295.193.298c0 .002 0 .007.005.007L.201.304l.02-.012C.222.291.225.289.225.287.225.284.222.282.219.282L.214.283.196.295Z"/>
    <path id="p" d="M.05.044C.043.034.033.024.033.015.033.004.049 0 .069 0h.357C.45 0 .453.006.46.038l.022.104c.001.007.004.02.004.035 0 .013-.01.018-.019.018C.46.195.454.193.451.189A.33.33 0 0 1 .428.156C.404.118.37.117.343.117h-.14c.016.017.092.101.216.248a.236.236 0 0 1 .058.143c0 .095-.08.178-.209.178-.127 0-.2-.096-.2-.133 0-.018.004-.03.027-.03.014 0 .031.018.074.057.018.017.051.026.09.026A.098.098 0 0 0 .354.507C.354.444.304.375.193.23L.05.044m.041.493C.084.537.078.544.078.548c0 .045.076.128.188.128C.323.676.37.661.395.633L.367.635.382.61a.251.251 0 0 1-.118.039.201.201 0 0 1-.171-.1c0-.004 0-.007.003-.011L.091.537M.202.224l.074.1C.332.4.364.447.364.507a.132.132 0 0 1-.036.087L.363.586.348.617C.391.598.412.561.412.507.412.467.377.395.298.296a5.737 5.737 0 0 0-.19-.23L.05.027.074.06l.128.164M.191.107h.151C.4.107.414.115.455.181c.001.002.006.005.009.005.007 0 .01-.004.012-.007C.466.177.463.17.459.162L.411.067.436.032A.02.02 0 0 0 .44.024C.44.02.441.016.435.016.432.016.428.023.427.024L.396.065H.125l.066.042Z"/>
    <path id="q" d="M.07.124a.235.235 0 0 1 .223-.141c.14 0 .266.121.266.37C.559.55.444.69.296.69.146.69.03.543.03.345c0-.078.005-.15.04-.221m.352.503L.435.598a.2.2 0 0 1-.139.059C.163.657.087.545.087.319c0-.132.02-.199.095-.277l-.02.007.02-.029C.087.064.04.173.04.345.04.532.146.68.295.68A.204.204 0 0 0 .454.61L.422.627m.01-.276C.432.158.379.049.294.049.196.049.145.14.145.32c0 .205.05.309.15.309.081 0 .137-.104.137-.278M.197.06.185.088C.217.061.24.039.293.039c.094 0 .149.114.149.311a.41.41 0 0 1-.07.259L.409.585l-.011.03C.464.566.497.494.497.35A.46.46 0 0 0 .451.12C.413.052.354.016.294.016.242.016.192.037.17.073L.197.06Z"/>
    <path id="r" d="m.389.543.023.138c.003.017.005.03-.005.035C.391.724.381.713.362.683.352.668.338.662.32.662H.077L.041.363.037.331c0-.01.001-.018.018-.018.015 0 .067.061.169.061C.273.374.33.32.33.238A.162.162 0 0 0 .177.08C.145.08.121.091.075.123.069.127.064.125.057.125.047.125.033.11.033.1c0-.055.097-.114.177-.114.069 0 .132.029.179.083.044.05.059.101.059.168 0 .105-.079.222-.203.222A.24.24 0 0 1 .11.411l.019.132h.26M.086.652h.235c.021 0 .038.007.049.024.011.016.02.031.023.031C.394.707.4.707.4.703A.07.07 0 0 0 .394.684L.361.615.384.57.38.553.353.605H.109L.101.626C.1.628.096.637.094.637.091.637.09.636.09.633L.092.626.101.605.066.352.047.329l.039.323M.111.401a.249.249 0 0 0 .133.048C.299.449.353.424.373.387L.332.401l.015-.03a.226.226 0 0 1-.122.043C.168.414.122.385.077.353l.034.048M.324.35.311.379C.364.353.39.292.39.234c0-.129-.117-.2-.18-.2-.07 0-.094.015-.142.057a.021.021 0 0 1-.007.003.035.035 0 0 1-.016-.003c.001.016.008.024.016.024C.075.115.08.108.095.098A.12.12 0 0 1 .177.07a.17.17 0 0 1 .111.294L.324.35Z"/>
    <path id="s" d="M.21.121C.21.06.19.049.15.031.145.029.136.025.136.016.136.004.147 0 .16 0h.212c.013 0 .025.003.025.015 0 .008-.002.015-.01.018C.343.049.324.065.324.134v.477a.32.32 0 0 0 .031.002C.423.613.454.561.468.54.477.527.486.522.492.522.5.522.505.529.505.539a.539.539 0 0 1-.028.128H.055L.036.589A.381.381 0 0 1 .025.531c0-.008.006-.014.01-.014.014 0 .018.008.046.044A.145.145 0 0 0 .18.612C.187.612.2.612.21.61V.121m.262.536L.452.628a.367.367 0 0 0 .043-.09C.495.536.494.534.492.534c-.013 0-.015.033-.051.09a.602.602 0 0 1-.163.017.809.809 0 0 1-.191-.017L.078.641c0 .001-.004.008-.006.008S.065.649.065.644c0-.003.003-.007.003-.008L.078.62C.058.582.052.554.043.533.041.528.035.528.035.535l.011.048.019.074h.407M.307.622C.31.621.314.62.314.614.314.609.307.611.305.612L.276.62C.272.621.271.623.271.627L.275.63h.006L.307.622M.264.1.262.065C.314.026.383.029.383.019.383.016.38.015.378.015a.32.32 0 0 0-.121.037.291.291 0 0 0-.103-.04C.152.012.148.014.148.016c0 .006.01.009.019.013C.208.046.22.071.22.118v.493l.039.016A.627.627 0 0 0 .264.551V.1Z"/>
    <path id="t" d="M.3.822.374.748l.074.074-.074.074L.3.822m-.166 0L.208.748l.074.074-.074.074L.134.822m.299.004H.378v.041c0 .002-.002.005-.004.005S.371.868.371.867V.826H.332C.331.826.324.825.324.822.324.817.33.818.332.818h.039V.765L.314.822l.06.06.059-.056m-.167 0H.211v.041C.211.869.21.872.207.872.205.872.204.868.204.867V.826H.165C.164.826.157.825.157.822c0-.005.006-.004.008-.004h.039V.765L.147.822l.061.06.058-.056M.364.21l.04-.112A.057.057 0 0 0 .407.084C.407.06.398.056.356.035.347.03.346.026.346.017c0-.012.013-.016.025-.016h.202c.017 0 .026.007.026.014C.599.019.598.027.592.03.533.061.534.064.515.117L.32.648C.306.687.302.71.285.707.271.704.268.686.257.649L.098.139C.077.071.076.063.015.035.009.032.003.025.003.019c0-.013.009-.018.021-.018h.159c.013 0 .024.003.024.015 0 .023-.056.018-.056.058 0 .006.006.025.011.041L.191.21h.173M.266.645A.203.203 0 0 0 .28.679L.278.611.108.057C.15.027.187.029.187.016L.185.013a.288.288 0 0 0-.087.036A.974.974 0 0 0 .027.02C.024.019.015.015.015.021c0 .005.009.008.014.01C.084.05.09.079.107.134l.159.511m.14-.393L.352.278.276.489l.011.096.119-.333M.27.473.34.279H.212L.27.473M.209.269h.136l.038-.02H.176l.033.02M.19.228.191.225C.191.22.184.217.181.222L.175.236.174.24c0 .004.007.005.009.001L.19.228M.473.064C.536.022.584.034.584.017.584.013.574.014.57.015a.337.337 0 0 0-.103.039.345.345 0 0 0-.102-.038c-.002 0-.009 0-.009.004 0 .007.009.008.026.016.022.01.037.024.037.043 0 .01-.006.026-.01.037L.373.215l.038.022.062-.173Z"/>
    <path id="v" d="M.033.054c0-.043.029-.069.072-.069s.072.026.072.069c0 .043-.029.069-.072.069S.033.097.033.054m.031 0c0 .028.019.044.041.044.023 0 .042-.016.042-.044C.147.026.128.01.105.01.083.01.064.026.064.054m.027.028h.028L.111.087H.099L.091.082M.077.062h.056L.131.067H.079L.077.062m0-.021h.057l.002.005H.075L.077.041M.092.025.099.02h.012l.008.005H.092Z"/>
    <path id="A" d="M-.154.452c-.012 0-.023-.02-.023-.032 0-.034.076-.045.122-.045.16 0 .323.109.421.213.003.002.003.003.006.003.002 0 .002-.003.002-.003C.37.581.324.518-.083-.032c0 0-.005-.01-.005-.018 0-.021.027-.024.058-.024.028 0 .039.003.063.036.027.037.106.144.143.187.125.146.477.604.532.604C.715.753.717.746.717.74.629.527.32.053.32-.195c0-.096.046-.158.169-.158.211 0 .271.182.271.222 0 .013-.007.018-.015.018a.027.027 0 0 1-.024-.02C.69-.253.611-.322.529-.322c-.073 0-.102.05-.102.13C.427.094.794.75.84.824a.037.037 0 0 1 .007.019c0 .012-.011.016-.026.016A.116.116 0 0 1 .765.841C.641.757.434.504.21.227.204.22.198.22.197.22c.06.086.217.36.383.612a.02.02 0 0 1 .003.01c0 .011-.012.021-.02.021C.559.864.557.863.555.858.45.685.197.412-.027.412c-.114 0-.112.04-.127.04Z"/>
    <path id="B" d="M-.258-.018a.622.622 0 0 0 .183-.03.31.31 0 0 0-.188-.063c-.069 0-.101.02-.101.044 0 .024.036.05.106.05m.02.036c-.109 0-.161-.042-.161-.085 0-.045.057-.09.165-.09.09 0 .166.034.233.088C.069-.085.155-.1.28-.1c.088 0 .183.056.183.127 0 .006-.003.01-.007.01-.002 0-.004 0-.007-.004-.038-.05-.14-.064-.214-.064-.058 0-.121.007-.183.015C.319.266.43.884.69.884.777.884.813.825.813.741c0-.2-.205-.538-.419-.538-.021 0-.056.01-.063.01C.314.212.303.194.303.178.303.164.312.15.333.15c.278 0 .521.391.521.613 0 .088-.038.15-.127.15-.38 0-.484-.658-.753-.918A1.539 1.539 0 0 1-.238.02Z"/>
    <clipPath id="u">
      <path d="M0 0h340.157v340.157H0Z"/>
    </clipPath>
    <clipPath id="w">
      <path d="M0 0h340.157v340.157H0Z"/>
    </clipPath>
    <clipPath id="x">
      <path d="M0 0h340.157v340.157H0Z"/>
    </clipPath>
    <clipPath id="y">
      <path d="M0 0h340.157v340.157H0Z"/>
    </clipPath>
    <clipPath id="z">
      <path d="M0 0h340.157v340.157H0Z"/>
    </clipPath>
  </defs>
  <use xlink:href="#a" fill="#231f20" data-text="A" transform="scale(37.018 -37.018) rotate(71.267 3.436 -.832)"/>
  <use xlink:href="#b" fill="#231f20" data-text="N" transform="scale(37.018 -37.018) rotate(60.135 3.676 -.13)"/>
  <use xlink:href="#c" fill="#231f20" data-text="G" transform="scale(37.018 -37.018) rotate(48.647 4.012 .919)"/>
  <use xlink:href="#d" fill="#231f20" data-text="E" transform="scale(37.018 -37.018) rotate(38.221 4.463 2.432)"/>
  <use xlink:href="#e" fill="#231f20" data-text="L" transform="scale(37.018 -37.018) rotate(28.496 5.205 4.7)"/>
  <use xlink:href="#f" fill="#231f20" data-text="I" transform="scale(37.018 -37.018) rotate(20.243 6.323 8.578)"/>
  <use xlink:href="#g" fill="#231f20" data-text="C" transform="scale(37.018 -37.018) rotate(12.028 9.094 16.78)"/>
  <use xlink:href="#a" fill="#231f20" data-text="A" transform="scale(37.018 -37.018) rotate(1.675 50.394 143.65)"/>
  <use xlink:href="#h" fill="#231f20" transform="scale(37.018 -37.018) rotate(-5.919 -11.195 -47.362)"/>
  <use xlink:href="#i" fill="#231f20" data-text="&amp;" transform="matrix(35.9941 8.6454 8.6454 -35.9941 186.841 52.47)"/>
  <use xlink:href="#h" fill="#231f20" transform="scale(37.018 -37.018) rotate(-21.543 -1.31 -15.595)"/>
  <use xlink:href="#b" fill="#231f20" data-text="N" transform="scale(37.018 -37.018) rotate(-28.851 -.26 -12.183)"/>
  <use xlink:href="#f" fill="#231f20" data-text="I" transform="scale(37.0178 -37.0178) rotate(-38.058 .364 -10.264)"/>
  <use xlink:href="#e" fill="#231f20" data-text="L" transform="scale(37.0178 -37.0178) rotate(-46.407 .81 -8.895)"/>
  <use xlink:href="#j" fill="#231f20" data-text="S" transform="scale(37.018 -37.018) rotate(-55.796 1.104 -7.963)"/>
  <use xlink:href="#h" fill="#231f20" transform="scale(37.018 -37.018) rotate(-62.284 1.201 -7.563)"/>
  <use xlink:href="#k" fill="#231f20" data-text="B" transform="scale(37.0178 -37.0178) rotate(-69.522 1.438 -6.956)"/>
  <use xlink:href="#l" fill="#231f20" data-text="R" transform="scale(37.018 -37.018) rotate(-80.066 1.62 -6.406)"/>
  <use xlink:href="#m" fill="#231f20" data-text="Ö" transform="scale(-37.018 37.018) rotate(88.811 -6.069 -1.813)"/>
  <use xlink:href="#e" fill="#231f20" data-text="L" transform="scale(-37.018 37.018) rotate(78.152 -6.894 -2.31)"/>
  <use xlink:href="#e" fill="#231f20" data-text="L" transform="scale(-37.018 37.018) rotate(68.319 -7.825 -2.899)"/>
  <use xlink:href="#n" fill="#231f20" data-text="O" transform="scale(-37.018 37.018) rotate(57.731 -9.114 -3.763)"/>
  <use xlink:href="#o" fill="#231f20" data-text="P" transform="scale(-37.0178 37.0178) rotate(47.228 -10.953 -4.878)"/>
  <use xlink:href="#h" fill="#231f20" transform="scale(-37.0179 37.0179) rotate(40.288 -12.714 -5.74)"/>
  <use xlink:href="#p" fill="#231f20" data-text="2" transform="scale(-37.018 37.018) rotate(33.496 -14.93 -7.396)"/>
  <use xlink:href="#q" fill="#231f20" data-text="0" transform="scale(-37.0179 37.0179) rotate(23.542 -20.577 -11.071)"/>
  <use xlink:href="#p" fill="#231f20" data-text="2" transform="matrix(-35.9832 8.6908 8.6908 35.9832 207.195 278.7)"/>
  <use xlink:href="#r" fill="#231f20" data-text="5" transform="scale(-37.0179 37.0179) rotate(4.501 -99.855 -61.01)"/>
  <use xlink:href="#h" fill="#231f20" transform="scale(-37.018 37.018) rotate(-2.029 214.503 134.034)"/>
  <use xlink:href="#j" fill="#231f20" data-text="S" transform="scale(-37.018 37.018) rotate(-8.601 48.862 32.998)"/>
  <use xlink:href="#s" fill="#231f20" data-text="T" transform="scale(-37.0181 37.0181) rotate(-17.803 22.333 16.279)"/>
  <use xlink:href="#l" fill="#231f20" data-text="R" transform="scale(-37.0178 37.0178) rotate(-27.916 13.285 10.577)"/>
  <use xlink:href="#t" fill="#231f20" data-text="Ä" transform="scale(-37.018 37.018) rotate(-38.912 8.713 7.661)"/>
  <use xlink:href="#b" fill="#231f20" data-text="N" transform="scale(-37.0178 37.0178) rotate(-50.298 6.033 5.96)"/>
  <use xlink:href="#c" fill="#231f20" data-text="G" transform="scale(-37.018 37.018) rotate(-61.675 4.279 4.825)"/>
  <use xlink:href="#b" fill="#231f20" data-text="N" transform="scale(-37.018 37.018) rotate(-73.02 3.04 4.033)"/>
  <use xlink:href="#t" fill="#231f20" data-text="Ä" transform="scale(-37.018 37.018) rotate(-84.343 2.083 3.414)"/>
  <use xlink:href="#j" fill="#231f20" data-text="S" transform="scale(37.018 -37.018) rotate(85.685 3.183 -1.483)"/>
  <use xlink:href="#h" fill="#231f20" transform="scale(37.0178 -37.0178) rotate(79.12 3.211 -1.116)"/>
  <g clip-path="url(#u)">
    <path fill="none" stroke="#231f20" stroke-miterlimit="10" d="M280.721 167.706c0 61.106-49.536 110.643-110.643 110.643-61.106 0-110.642-49.537-110.642-110.643S108.972 57.063 170.078 57.063c61.107 0 110.643 49.537 110.643 110.643Z"/>
    <path fill="none" stroke="#231f20" stroke-miterlimit="10" stroke-width="2" d="M318.425 169.078c0 81.377-65.969 147.346-147.346 147.346-81.377 0-147.347-65.969-147.347-147.346 0-81.377 65.97-147.346 147.347-147.346 81.377 0 147.346 65.97 147.346 147.346Z"/>
    <path fill="none" stroke="#231f20" stroke-miterlimit="10" d="M277.609 167.706c0 59.387-48.143 107.53-107.53 107.53s-107.53-48.143-107.53-107.53 48.143-107.53 107.53-107.53 107.53 48.143 107.53 107.53Z"/>
    <use xlink:href="#v" fill="#231f20" data-text="." transform="scale(37.8084 -37.8084) rotate(88.582 2.565 -1.96)"/>
    <use xlink:href="#v" fill="#231f20" data-text="." transform="scale(37.8087 -37.8087) rotate(85.694 2.577 -1.842)"/>
    <use xlink:href="#v" fill="#231f20" data-text="." transform="scale(37.8087 -37.8087) rotate(82.801 2.59 -1.718)"/>
    <use xlink:href="#v" fill="#231f20" data-text="." transform="scale(37.8084 -37.8084) rotate(79.883 2.605 -1.586)"/>
    <use xlink:href="#v" fill="#231f20" data-text="." transform="scale(37.8086 -37.8086) rotate(76.957 2.62 -1.445)"/>
    <use xlink:href="#v" fill="#231f20" data-text="." transform="scale(37.8086 -37.8086) rotate(74.022 2.638 -1.295)"/>
    <use xlink:href="#v" fill="#231f20" data-text="." transform="scale(37.8086 -37.8086) rotate(71.083 2.657 -1.134)"/>
    <use xlink:href="#v" fill="#231f20" data-text="." transform="scale(37.8086 -37.8086) rotate(68.15 2.677 -.961)"/>
  </g>
  <use xlink:href="#v" fill="#231f20" data-text="." transform="scale(37.8088 -37.8088) rotate(65.223 2.698 -.776)"/>
  <use xlink:href="#v" fill="#231f20" data-text="." transform="scale(37.8086 -37.8086) rotate(62.302 2.721 -.574)"/>
  <use xlink:href="#v" fill="#231f20" data-text="." transform="scale(37.8086 -37.8086) rotate(59.386 2.746 -.355)"/>
  <use xlink:href="#v" fill="#231f20" data-text="." transform="scale(37.8085 -37.8085) rotate(56.474 2.772 -.116)"/>
  <use xlink:href="#v" fill="#231f20" data-text="." transform="scale(37.8086 -37.8086) rotate(53.573 2.801 .147)"/>
  <use xlink:href="#v" fill="#231f20" data-text="." transform="scale(37.8085 -37.8085) rotate(50.671 2.833 .438)"/>
  <use xlink:href="#v" fill="#231f20" data-text="." transform="scale(37.8087 -37.8087) rotate(47.775 2.868 .761)"/>
  <use xlink:href="#v" fill="#231f20" data-text="." transform="scale(37.8085 -37.8085) rotate(44.882 2.908 1.124)"/>
  <use xlink:href="#v" fill="#231f20" data-text="." transform="scale(37.8088 -37.8088) rotate(41.99 2.952 1.533)"/>
  <use xlink:href="#v" fill="#231f20" data-text="." transform="scale(37.8086 -37.8086) rotate(39.083 3.003 2.003)"/>
  <use xlink:href="#v" fill="#231f20" data-text="." transform="scale(37.8086 -37.8086) rotate(36.19 3.062 2.54)"/>
  <use xlink:href="#v" fill="#231f20" data-text="." transform="scale(37.8088 -37.8088) rotate(33.278 3.131 3.173)"/>
  <use xlink:href="#v" fill="#231f20" data-text="." transform="scale(37.8087 -37.8087) rotate(30.376 3.214 3.92)"/>
  <use xlink:href="#v" fill="#231f20" data-text="." transform="scale(37.8088 -37.8088) rotate(27.459 3.314 4.825)"/>
  <use xlink:href="#v" fill="#231f20" data-text="." transform="scale(37.8087 -37.8087) rotate(24.525 3.438 5.945)"/>
  <g fill="#231f20" clip-path="url(#w)">
    <use xlink:href="#v" data-text="." transform="scale(37.8085 -37.8085) rotate(21.608 3.594 7.356)"/>
    <use xlink:href="#v" data-text="." transform="scale(37.8086 -37.8086) rotate(18.674 3.8 9.212)"/>
    <use xlink:href="#v" data-text="." transform="scale(37.8086 -37.8086) rotate(15.732 4.084 11.76)"/>
    <use xlink:href="#v" data-text="." transform="scale(37.8087 -37.8087) rotate(12.808 4.494 15.445)"/>
    <use xlink:href="#v" data-text="." transform="scale(37.8087 -37.8087) rotate(9.88 5.146 21.313)"/>
    <use xlink:href="#v" data-text="." transform="scale(37.8087 -37.8087) rotate(6.962 6.339 32.062)"/>
    <use xlink:href="#v" data-text="." transform="scale(37.8084 -37.8084) rotate(4.057 9.228 58.117)"/>
    <use xlink:href="#v" data-text="." transform="scale(37.8086 -37.8086) rotate(1.179 26.104 210.438)"/>
    <use xlink:href="#v" data-text="." transform="matrix(37.7923 1.107 1.107 -37.7923 171.602 18.462)"/>
    <use xlink:href="#v" data-text="." transform="scale(37.8085 -37.8085) rotate(-4.555 -3.84 -59.853)"/>
    <use xlink:href="#v" data-text="." transform="scale(37.8087 -37.8087) rotate(-7.459 -1.44 -38.168)"/>
    <use xlink:href="#v" data-text="." transform="scale(37.8086 -37.8086) rotate(-10.375 -.38 -28.595)"/>
    <use xlink:href="#v" data-text="." transform="scale(37.8086 -37.8086) rotate(-13.3 .217 -23.197)"/>
    <use xlink:href="#v" data-text="." transform="scale(37.8085 -37.8085) rotate(-16.233 .601 -19.73)"/>
    <use xlink:href="#v" data-text="." transform="scale(37.8086 -37.8086) rotate(-19.172 .868 -17.314)"/>
    <use xlink:href="#v" data-text="." transform="matrix(35.03 14.2266 14.2266 -35.03 224.022 28.028)"/>
  </g>
  <use xlink:href="#v" fill="#231f20" data-text="." transform="scale(37.8086 -37.8086) rotate(-25.029 1.215 -14.178)"/>
  <use xlink:href="#v" fill="#231f20" data-text="." transform="scale(37.8086 -37.8086) rotate(-27.958 1.335 -13.098)"/>
  <use xlink:href="#v" fill="#231f20" data-text="." transform="scale(37.8088 -37.8088) rotate(-30.873 1.431 -12.224)"/>
  <use xlink:href="#v" fill="#231f20" data-text="." transform="scale(37.8087 -37.8087) rotate(-33.784 1.511 -11.499)"/>
  <use xlink:href="#v" fill="#231f20" data-text="." transform="scale(37.8084 -37.8084) rotate(-36.684 1.578 -10.888)"/>
  <use xlink:href="#v" fill="#231f20" data-text="." transform="scale(37.8085 -37.8085) rotate(-39.585 1.636 -10.365)"/>
  <use xlink:href="#v" fill="#231f20" data-text="." transform="scale(37.8086 -37.8086) rotate(-42.481 1.686 -9.911)"/>
  <use xlink:href="#v" fill="#231f20" data-text="." transform="scale(37.8085 -37.8085) rotate(-45.374 1.73 -9.514)"/>
  <use xlink:href="#v" fill="#231f20" data-text="." transform="scale(37.8086 -37.8086) rotate(-48.266 1.768 -9.161)"/>
  <use xlink:href="#v" fill="#231f20" data-text="." transform="scale(37.8086 -37.8086) rotate(-51.163 1.802 -8.846)"/>
  <use xlink:href="#v" fill="#231f20" data-text="." transform="matrix(22.1876 30.614 30.614 -22.1876 290.745 77.6)"/>
  <use xlink:href="#v" fill="#231f20" data-text="." transform="scale(37.8084 -37.8084) rotate(-56.97 1.862 -8.304)"/>
  <use xlink:href="#v" fill="#231f20" data-text="." transform="scale(37.8085 -37.8085) rotate(-59.884 1.889 -8.067)"/>
  <use xlink:href="#v" fill="#231f20" data-text="." transform="scale(37.8084 -37.8084) rotate(-62.802 1.913 -7.85)"/>
  <use xlink:href="#v" fill="#231f20" data-text="." transform="scale(37.8087 -37.8087) rotate(-65.725 1.936 -7.65)"/>
  <g fill="#231f20" clip-path="url(#x)">
    <use xlink:href="#v" data-text="." transform="scale(37.8086 -37.8086) rotate(-68.656 1.957 -7.465)"/>
    <use xlink:href="#v" data-text="." transform="scale(37.8085 -37.8085) rotate(-71.592 1.976 -7.292)"/>
    <use xlink:href="#v" data-text="." transform="scale(37.8085 -37.8085) rotate(-74.524 1.995 -7.131)"/>
    <use xlink:href="#v" data-text="." transform="scale(37.8083 -37.8083) rotate(-77.449 2.012 -6.981)"/>
    <use xlink:href="#v" data-text="." transform="scale(37.8085 -37.8085) rotate(-80.378 2.028 -6.84)"/>
    <use xlink:href="#v" data-text="." transform="scale(37.8087 -37.8087) rotate(-83.298 2.042 -6.71)"/>
    <use xlink:href="#v" data-text="." transform="scale(37.8085 -37.8085) rotate(-86.192 2.055 -6.587)"/>
    <use xlink:href="#v" data-text="." transform="matrix(.6212 37.8037 37.8037 -.6212 321.56 162.587)"/>
    <use xlink:href="#v" data-text="." transform="scale(-37.8084 37.8084) rotate(88.072 -6.583 -2.148)"/>
    <use xlink:href="#v" data-text="." transform="scale(-37.8085 37.8085) rotate(85.185 -6.81 -2.271)"/>
    <use xlink:href="#v" data-text="." transform="scale(-37.8085 37.8085) rotate(82.282 -7.051 -2.402)"/>
    <use xlink:href="#v" data-text="." transform="scale(-37.8086 37.8086) rotate(79.367 -7.307 -2.543)"/>
    <use xlink:href="#v" data-text="." transform="scale(-37.8083 37.8083) rotate(76.442 -7.58 -2.693)"/>
    <use xlink:href="#v" data-text="." transform="scale(-37.8086 37.8086) rotate(73.5 -7.872 -2.855)"/>
    <use xlink:href="#v" data-text="." transform="scale(-37.8087 37.8087) rotate(70.575 -8.184 -3.027)"/>
    <use xlink:href="#v" data-text="." transform="scale(-37.8087 37.8087) rotate(67.644 -8.52 -3.212)"/>
  </g>
  <use xlink:href="#v" fill="#231f20" data-text="." transform="scale(-37.8085 37.8085) rotate(64.709 -8.882 -3.412)"/>
  <use xlink:href="#v" fill="#231f20" data-text="." transform="scale(-37.8084 37.8084) rotate(61.791 -9.273 -3.627)"/>
  <use xlink:href="#v" fill="#231f20" data-text="." transform="scale(-37.8086 37.8086) rotate(58.878 -9.699 -3.86)"/>
  <use xlink:href="#v" fill="#231f20" data-text="." transform="scale(-37.8086 37.8086) rotate(55.968 -10.164 -4.115)"/>
  <use xlink:href="#v" fill="#231f20" data-text="." transform="scale(-37.8087 37.8087) rotate(53.059 -10.676 -4.395)"/>
  <use xlink:href="#v" fill="#231f20" data-text="." transform="scale(-37.8084 37.8084) rotate(50.169 -11.24 -4.703)"/>
  <use xlink:href="#v" fill="#231f20" data-text="." transform="scale(-37.8085 37.8085) rotate(47.263 -11.87 -5.047)"/>
  <use xlink:href="#v" fill="#231f20" data-text="." transform="scale(-37.8086 37.8086) rotate(44.371 -12.576 -5.431)"/>
  <use xlink:href="#v" fill="#231f20" data-text="." transform="scale(-37.8085 37.8085) rotate(41.477 -13.375 -5.867)"/>
  <use xlink:href="#v" fill="#231f20" data-text="." transform="scale(-37.8087 37.8087) rotate(38.58 -14.289 -6.366)"/>
  <use xlink:href="#v" fill="#231f20" data-text="." transform="matrix(-30.713 22.05 22.05 30.713 262.017 289.157)"/>
  <use xlink:href="#v" fill="#231f20" data-text="." transform="scale(-37.8086 37.8086) rotate(32.772 -16.588 -7.622)"/>
  <use xlink:href="#v" fill="#231f20" data-text="." transform="scale(-37.8084 37.8084) rotate(29.857 -18.069 -8.431)"/>
  <use xlink:href="#v" fill="#231f20" data-text="." transform="scale(-37.8086 37.8086) rotate(26.948 -19.856 -9.41)"/>
  <use xlink:href="#v" fill="#231f20" data-text="." transform="scale(-37.8087 37.8087) rotate(24.022 -22.082 -10.631)"/>
  <g fill="#231f20" clip-path="url(#y)">
    <use xlink:href="#v" data-text="." transform="scale(-37.8087 37.8087) rotate(21.092 -24.92 -12.188)"/>
    <use xlink:href="#v" data-text="." transform="scale(-37.8086 37.8086) rotate(18.153 -28.673 -14.248)"/>
    <use xlink:href="#v" data-text="." transform="scale(-37.8085 37.8085) rotate(15.221 -33.85 -17.09)"/>
    <use xlink:href="#v" data-text="." transform="scale(-37.8085 37.8085) rotate(12.293 -41.465 -21.27)"/>
    <use xlink:href="#v" data-text="." transform="scale(-37.8087 37.8087) rotate(9.363 -53.83 -28.053)"/>
    <use xlink:href="#v" data-text="." transform="scale(-37.8085 37.8085) rotate(6.454 -77.181 -40.855)"/>
    <use xlink:href="#v" data-text="." transform="matrix(-37.7356 2.3472 2.3472 37.7356 184.53 319.106)"/>
    <use xlink:href="#v" data-text="." transform="matrix(-37.8037 .6129 .6129 37.8037 176.903 319.57)"/>
    <use xlink:href="#v" data-text="." transform="scale(-37.8086 37.8086) rotate(-2.177 220.258 122.006)"/>
    <use xlink:href="#v" data-text="." transform="scale(-37.8087 37.8087) rotate(-5.064 93.38 52.541)"/>
    <use xlink:href="#v" data-text="." transform="scale(-37.8085 37.8085) rotate(-7.966 58.504 33.457)"/>
    <use xlink:href="#v" data-text="." transform="scale(-37.8086 37.8086) rotate(-10.891 42.133 24.504)"/>
    <use xlink:href="#v" data-text="." transform="scale(-37.8087 37.8087) rotate(-13.814 32.688 19.341)"/>
    <use xlink:href="#v" data-text="." transform="scale(-37.8084 37.8084) rotate(-16.756 26.496 15.958)"/>
    <use xlink:href="#v" data-text="." transform="scale(-37.8087 37.8087) rotate(-19.69 22.151 13.584)"/>
  </g>
  <use xlink:href="#v" fill="#231f20" data-text="." transform="scale(-37.8084 37.8084) rotate(-22.62 18.93 11.823)"/>
  <use xlink:href="#v" fill="#231f20" data-text="." transform="scale(-37.8085 37.8085) rotate(-25.542 16.443 10.464)"/>
  <use xlink:href="#v" fill="#231f20" data-text="." transform="scale(-37.8086 37.8086) rotate(-28.47 14.456 9.377)"/>
  <use xlink:href="#v" fill="#231f20" data-text="." transform="scale(-37.8085 37.8085) rotate(-31.381 12.841 8.492)"/>
  <use xlink:href="#v" fill="#231f20" data-text="." transform="scale(-37.8086 37.8086) rotate(-34.29 11.495 7.754)"/>
  <use xlink:href="#v" fill="#231f20" data-text="." transform="scale(-37.8086 37.8086) rotate(-37.188 10.357 7.13)"/>
  <use xlink:href="#v" fill="#231f20" data-text="." transform="scale(-37.8085 37.8085) rotate(-40.089 9.377 6.593)"/>
  <use xlink:href="#v" fill="#231f20" data-text="." transform="scale(-37.8086 37.8086) rotate(-42.983 8.527 6.125)"/>
  <use xlink:href="#v" fill="#231f20" data-text="." transform="scale(-37.8087 37.8087) rotate(-45.886 7.776 5.713)"/>
  <use xlink:href="#v" fill="#231f20" data-text="." transform="scale(-37.8086 37.8086) rotate(-48.78 7.112 5.349)"/>
  <use xlink:href="#v" fill="#231f20" data-text="." transform="scale(-37.8086 37.8086) rotate(-51.677 6.518 5.022)"/>
  <use xlink:href="#v" fill="#231f20" data-text="." transform="scale(-37.8086 37.8086) rotate(-54.571 5.984 4.73)"/>
  <use xlink:href="#v" fill="#231f20" data-text="." transform="scale(-37.8085 37.8085) rotate(-57.487 5.496 4.462)"/>
  <use xlink:href="#v" fill="#231f20" data-text="." transform="scale(-37.8088 37.8088) rotate(-60.393 5.053 4.22)"/>
  <use xlink:href="#v" fill="#231f20" data-text="." transform="scale(-37.8085 37.8085) rotate(-63.314 4.645 3.996)"/>
  <use xlink:href="#v" fill="#231f20" data-text="." transform="scale(-37.8084 37.8084) rotate(-66.24 4.27 3.791)"/>
  <g clip-path="url(#z)">
    <use xlink:href="#v" fill="#231f20" data-text="." transform="scale(-37.8085 37.8085) rotate(-69.162 3.922 3.602)"/>
    <use xlink:href="#v" fill="#231f20" data-text="." transform="scale(-37.8084 37.8084) rotate(-72.102 3.599 3.425)"/>
    <use xlink:href="#v" fill="#231f20" data-text="." transform="scale(-37.8086 37.8086) rotate(-75.036 3.297 3.26)"/>
    <use xlink:href="#v" fill="#231f20" data-text="." transform="scale(-37.8086 37.8086) rotate(-77.964 3.016 3.107)"/>
    <use xlink:href="#v" fill="#231f20" data-text="." transform="scale(-37.8084 37.8084) rotate(-80.885 2.752 2.963)"/>
    <use xlink:href="#v" fill="#231f20" data-text="." transform="scale(-37.8085 37.8085) rotate(-83.806 2.503 2.827)"/>
    <use xlink:href="#v" fill="#231f20" data-text="." transform="scale(-37.8085 37.8085) rotate(-86.69 2.27 2.7)"/>
    <path fill="none" stroke="#231f20" stroke-miterlimit="10" stroke-width="2" d="M329.82 169.078c0 87.692-71.089 158.781-158.78 158.781-87.693 0-158.782-71.089-158.782-158.78 0-87.693 71.09-158.782 158.781-158.782 87.692 0 158.781 71.09 158.781 158.781Z"/>
    <path fill="#231f20" d="m76.706 114.949 187.604.917"/>
    <path fill="none" stroke="#231f20" stroke-miterlimit="10" d="m76.706 114.949 187.604.917"/>
    <path fill="#231f20" d="m71.892 190.057 187.72.917"/>
    <path fill="none" stroke="#231f20" stroke-miterlimit="10" d="m71.892 190.057 187.72.917"/>
    <path fill="#231f20" d="m64.28 187.028 211.45.794"/>
    <path fill="none" stroke="#231f20" stroke-miterlimit="10" d="m64.28 187.028 211.45.794"/>
    <path fill="#231f20" d="m64.173 184.019 212.044 1.036"/>
    <path fill="none" stroke="#231f20" stroke-miterlimit="10" d="m64.173 184.019 212.044 1.036"/>
    <path fill="#231f20" d="m63.364 181.015 213.295 1.042"/>
    <path fill="none" stroke="#231f20" stroke-miterlimit="10" d="m63.364 181.015 213.295 1.042"/>
    <path fill="#231f20" d="m63.043 178.084 214.014 1.348"/>
    <path fill="none" stroke="#231f20" stroke-miterlimit="10" d="m63.043 178.084 214.014 1.348"/>
    <path fill="#231f20" d="m62.793 175.012 214.496 1.048"/>
    <path fill="none" stroke="#231f20" stroke-miterlimit="10" d="m62.793 175.012 214.496 1.048"/>
    <path fill="#231f20" d="m63.179 172.014 214.299 1.047"/>
    <path fill="none" stroke="#231f20" stroke-miterlimit="10" d="m63.179 172.014 214.299 1.047"/>
    <path fill="#231f20" d="m63.177 169.014 213.937 1.045"/>
    <path fill="none" stroke="#231f20" stroke-miterlimit="10" d="m63.177 169.014 213.937 1.045"/>
    <path fill="#231f20" d="m62.949 166.023 214.656.796"/>
    <path fill="none" stroke="#231f20" stroke-miterlimit="10" d="m62.949 166.023 214.656.796"/>
    <path fill="#231f20" d="m66.006 193.028 208.353 1.018"/>
    <path fill="none" stroke="#231f20" stroke-miterlimit="10" d="m66.006 193.028 208.353 1.018"/>
    <path fill="#231f20" d="m66.617 196.03 206.941 1.012"/>
    <path fill="none" stroke="#231f20" stroke-miterlimit="10" d="m66.617 196.03 206.941 1.012"/>
    <path fill="#231f20" d="m67.184 199.033 205.479 1.004"/>
    <path fill="none" stroke="#231f20" stroke-miterlimit="10" d="m67.184 199.033 205.479 1.004"/>
    <path fill="#231f20" d="m68.529 202.04 203.142.993"/>
    <path fill="none" stroke="#231f20" stroke-miterlimit="10" d="m68.529 202.04 203.142.993"/>
    <path fill="#231f20" d="m69.208 205.043 201.256.983"/>
    <path fill="none" stroke="#231f20" stroke-miterlimit="10" d="m69.208 205.043 201.256.983"/>
    <path fill="#231f20" d="m70.744 208.051 198.641.971"/>
    <path fill="none" stroke="#231f20" stroke-miterlimit="10" d="m70.744 208.051 198.641.971"/>
    <path fill="#231f20" d="m71.892 211.057 196.193.959"/>
    <path fill="none" stroke="#231f20" stroke-miterlimit="10" d="m71.892 211.057 196.193.959"/>
    <path fill="#231f20" d="m72.655 214.06 193.74.947"/>
    <path fill="none" stroke="#231f20" stroke-miterlimit="10" d="m72.655 214.06 193.74.947"/>
    <path fill="#231f20" d="m74.872 217.071 190.033.928"/>
    <path fill="none" stroke="#231f20" stroke-miterlimit="10" d="m74.872 217.071 190.033.928"/>
    <path fill="#231f20" d="m76.247 220.078 186.881.913"/>
    <path fill="none" stroke="#231f20" stroke-miterlimit="10" d="m76.247 220.078 186.881.913"/>
    <path fill="#231f20" d="m78.312 223.088 183.211.895"/>
    <path fill="none" stroke="#231f20" stroke-miterlimit="10" d="m78.312 223.088 183.211.895"/>
    <path fill="#231f20" d="m79.768 226.096 179.844.879"/>
    <path fill="none" stroke="#231f20" stroke-miterlimit="10" d="m79.768 226.096 179.844.879"/>
    <path fill="#231f20" d="m81.79 229.106 176.178.86"/>
    <path fill="none" stroke="#231f20" stroke-miterlimit="10" d="m81.79 229.106 176.178.86"/>
    <path fill="#231f20" d="m83.966 232.116 171.591.838"/>
    <path fill="none" stroke="#231f20" stroke-miterlimit="10" d="m83.966 232.116 171.591.838"/>
    <path fill="#231f20" d="m86.306 235.128 167.134.817"/>
    <path fill="none" stroke="#231f20" stroke-miterlimit="10" d="m86.306 235.128 167.134.817"/>
    <path fill="#231f20" d="m88.825 238.14 161.815.791"/>
    <path fill="none" stroke="#231f20" stroke-miterlimit="10" d="m88.825 238.14 161.815.791"/>
    <path fill="#231f20" d="m91.076 241.152 156.82.766"/>
    <path fill="none" stroke="#231f20" stroke-miterlimit="10" d="m91.076 241.152 156.82.766"/>
    <path fill="#231f20" d="m95.051 244.171 149.884.732"/>
    <path fill="none" stroke="#231f20" stroke-miterlimit="10" d="m95.051 244.171 149.884.732"/>
    <path fill="#231f20" d="m97.648 247.184 144.083.704"/>
    <path fill="none" stroke="#231f20" stroke-miterlimit="10" d="m97.648 247.184 144.083.704"/>
    <path fill="#231f20" d="m100.82 249.965 137.43.905"/>
    <path fill="none" stroke="#231f20" stroke-miterlimit="10" d="m100.82 249.965 137.43.905"/>
    <path fill="#231f20" d="m104.788 253.152 129.489.826"/>
    <path fill="none" stroke="#231f20" stroke-miterlimit="10" d="m104.788 253.152 129.489.826"/>
    <path fill="#231f20" d="m109.44 256.387 120.171.587"/>
    <path fill="none" stroke="#231f20" stroke-miterlimit="10" d="m109.44 256.387 120.171.587"/>
    <path fill="#231f20" d="m113.74 259.432 111.38.544"/>
    <path fill="none" stroke="#231f20" stroke-miterlimit="10" d="m113.74 259.432 111.38.544"/>
    <path fill="#231f20" d="m118.954 262.482 100.657.492"/>
    <path fill="none" stroke="#231f20" stroke-miterlimit="10" d="m118.954 262.482 100.657.492"/>
    <path fill="#231f20" d="m125.343 265.517 88.085.461"/>
    <path fill="none" stroke="#231f20" stroke-miterlimit="10" d="m125.343 265.517 88.085.461"/>
    <path fill="#231f20" d="m132.84 268.614 73.771.36"/>
    <path fill="none" stroke="#231f20" stroke-miterlimit="10" d="m132.84 268.614 73.771.36"/>
    <path fill="#231f20" d="m142.23 271.515 54.381.46"/>
    <path fill="none" stroke="#231f20" stroke-miterlimit="10" d="m142.23 271.515 54.381.46"/>
    <path fill="#231f20" d="m63.026 163.025 214.203.757"/>
    <path fill="none" stroke="#231f20" stroke-miterlimit="10" d="m63.026 163.025 214.203.757"/>
    <path fill="#231f20" d="m63.103 160.013 214.012 1.046"/>
    <path fill="none" stroke="#231f20" stroke-miterlimit="10" d="m63.103 160.013 214.012 1.046"/>
    <path fill="#231f20" d="m63.484 157.015 213.459 1.043"/>
    <path fill="none" stroke="#231f20" stroke-miterlimit="10" d="m63.484 157.015 213.459 1.043"/>
    <path fill="#231f20" d="m63.413 154.015 213.46 1.043"/>
    <path fill="none" stroke="#231f20" stroke-miterlimit="10" d="m63.413 154.015 213.46 1.043"/>
    <path fill="#231f20" d="m71.892 190.057 187.72.917"/>
    <path fill="none" stroke="#231f20" stroke-miterlimit="10" d="m71.892 190.057 187.72.917"/>
    <path fill="#231f20" d="m63.836 151.017 212.36 1.038"/>
    <path fill="none" stroke="#231f20" stroke-miterlimit="10" d="m63.836 151.017 212.36 1.038"/>
    <path fill="#231f20" d="m64.498 148.02 211.184 1.032"/>
    <path fill="none" stroke="#231f20" stroke-miterlimit="10" d="m64.498 148.02 211.184 1.032"/>
    <path fill="#231f20" d="m64.946 145.023 210.162 1.026"/>
    <path fill="none" stroke="#231f20" stroke-miterlimit="10" d="m64.946 145.023 210.162 1.026"/>
    <path fill="#231f20" d="m65.635 142.026 209.133 1.022"/>
    <path fill="none" stroke="#231f20" stroke-miterlimit="10" d="m65.635 142.026 209.133 1.022"/>
    <path fill="#231f20" d="m66.415 139.03 207.375 1.013"/>
    <path fill="none" stroke="#231f20" stroke-miterlimit="10" d="m66.415 139.03 207.375 1.013"/>
    <path fill="#231f20" d="m67.763 136.036 204.994 1.002"/>
    <path fill="none" stroke="#231f20" stroke-miterlimit="10" d="m67.763 136.036 204.994 1.002"/>
    <path fill="#231f20" d="m68.606 133.04 203.177.994"/>
    <path fill="none" stroke="#231f20" stroke-miterlimit="10" d="m68.606 133.04 203.177.994"/>
    <path fill="#231f20" d="m69.75 130.046 201.173.983"/>
    <path fill="none" stroke="#231f20" stroke-miterlimit="10" d="m69.75 130.046 201.173.983"/>
    <path fill="#231f20" d="m70.974 127.052 199.077.973"/>
    <path fill="none" stroke="#231f20" stroke-miterlimit="10" d="m70.974 127.052 199.077.973"/>
    <path fill="#231f20" d="m71.892 124.057 196.91.962"/>
    <path fill="none" stroke="#231f20" stroke-miterlimit="10" d="m71.892 124.057 196.91.962"/>
    <path fill="#231f20" d="m73.164 121.063 193.918.947"/>
    <path fill="none" stroke="#231f20" stroke-miterlimit="10" d="m73.164 121.063 193.918.947"/>
    <path fill="#231f20" d="m75.102 117.751 190.872 1.254"/>
    <path fill="none" stroke="#231f20" stroke-miterlimit="10" d="m75.102 117.751 190.872 1.254"/>
    <path fill="#231f20" d="m78.007 111.637 184.336 1.353"/>
    <path fill="none" stroke="#231f20" stroke-miterlimit="10" d="m78.007 111.637 184.336 1.353"/>
    <path fill="#231f20" d="m71.892 190.057 187.72.917"/>
    <path fill="none" stroke="#231f20" stroke-miterlimit="10" d="m71.892 190.057 187.72.917"/>
    <path fill="#231f20" d="m65.395 190.025 209.427 1.023"/>
    <path fill="none" stroke="#231f20" stroke-miterlimit="10" d="m65.395 190.025 209.427 1.023"/>
    <path fill="#231f20" d="m79.912 109.096 180.905.884"/>
    <path fill="none" stroke="#231f20" stroke-miterlimit="10" d="m79.912 109.096 180.905.884"/>
    <path fill="#231f20" d="m82.132 106.107 177.48.867"/>
    <path fill="none" stroke="#231f20" stroke-miterlimit="10" d="m82.132 106.107 177.48.867"/>
    <path fill="#231f20" d="m84.808 103.12 171.875.84"/>
    <path fill="none" stroke="#231f20" stroke-miterlimit="10" d="m84.808 103.12 171.875.84"/>
    <path fill="#231f20" d="m86.433 100.128 168.442.823"/>
    <path fill="none" stroke="#231f20" stroke-miterlimit="10" d="m86.433 100.128 168.442.823"/>
    <path fill="#231f20" d="m88.94 97.14 162.96.797"/>
    <path fill="none" stroke="#231f20" stroke-miterlimit="10" d="m88.94 97.14 162.96.797"/>
    <path fill="#231f20" d="m91.994 94.155 157.238.768"/>
    <path fill="none" stroke="#231f20" stroke-miterlimit="10" d="m91.994 94.155 157.238.768"/>
    <path fill="#231f20" d="m94.55 91.168 151.8.742"/>
    <path fill="none" stroke="#231f20" stroke-miterlimit="10" d="m94.55 91.168 151.8.742"/>
    <path fill="#231f20" d="m98.109 88.186 144.782.395"/>
    <path fill="none" stroke="#231f20" stroke-miterlimit="10" d="m98.109 88.186 144.782.395"/>
    <path fill="#231f20" d="m101.7 85.203 138.14.675"/>
    <path fill="none" stroke="#231f20" stroke-miterlimit="10" d="m101.7 85.203 138.14.675"/>
    <path fill="#231f20" d="m105.368 82.221 130.777.64"/>
    <path fill="none" stroke="#231f20" stroke-miterlimit="10" d="m105.368 82.221 130.777.64"/>
    <path fill="#231f20" d="m109.266 79.24 121.758.595"/>
    <path fill="none" stroke="#231f20" stroke-miterlimit="10" d="m109.266 79.24 121.758.595"/>
    <path fill="#231f20" d="m113.48 76.26 114.079.557"/>
    <path fill="none" stroke="#231f20" stroke-miterlimit="10" d="m113.48 76.26 114.079.557"/>
    <path fill="#231f20" d="m118.585 73.285 103.896.508"/>
    <path fill="none" stroke="#231f20" stroke-miterlimit="10" d="m118.585 73.285 103.896.508"/>
    <path fill="#231f20" d="m125.47 70.319 91.194.446"/>
    <path fill="none" stroke="#231f20" stroke-miterlimit="10" d="m125.47 70.319 91.194.446"/>
    <path fill="#231f20" d="m132.07 66.915 77.24.644"/>
    <path fill="none" stroke="#231f20" stroke-miterlimit="10" d="m132.07 66.915 77.24.644"/>
    <path fill="#231f20" d="m141.369 64.396 59.624.291"/>
    <path fill="none" stroke="#231f20" stroke-miterlimit="10" d="m141.369 64.396 59.624.291"/>
    <path fill="#231f20" d="m152.76 61.452 33.785.165"/>
    <path fill="none" stroke="#231f20" stroke-miterlimit="10" d="m152.76 61.452 33.785.165"/>
    <path fill="#231f20" d="m154.107 274.058 31.505-.084"/>
    <path fill="none" stroke="#231f20" stroke-miterlimit="10" d="m154.107 274.058 31.505-.084"/>
  </g>
  <use xlink:href="#A" fill="#f4f0e9" data-text="N" transform="matrix(122 0 0 -122 144.894 205.536)"/>
  <use xlink:href="#B" fill="#f4f0e9" data-text="L" transform="rotate(90 22.392 137.8) scale(98)"/>
</svg>